<svg width="60" height="14" viewBox="0 0 60 14" fill="none" xmlns="http://www.w3.org/2000/svg">
<path d="M0.396 5.776C0.396 4.944 0.576 4.204 0.936 3.556C1.296 2.9 1.796 2.392 2.436 2.032C3.084 1.664 3.816 1.48 4.632 1.48C5.632 1.48 6.488 1.744 7.2 2.272C7.912 2.8 8.388 3.52 8.628 4.432H6.372C6.204 4.08 5.964 3.812 5.652 3.628C5.348 3.444 5 3.352 4.608 3.352C3.976 3.352 3.464 3.572 3.072 4.012C2.68 4.452 2.484 5.04 2.484 5.776C2.484 6.512 2.68 7.1 3.072 7.54C3.464 7.98 3.976 8.2 4.608 8.2C5 8.2 5.348 8.108 5.652 7.924C5.964 7.74 6.204 7.472 6.372 7.12H8.628C8.388 8.032 7.912 8.752 7.2 9.28C6.488 9.8 5.632 10.06 4.632 10.06C3.816 10.06 3.084 9.88 2.436 9.52C1.796 9.152 1.296 8.644 0.936 7.996C0.576 7.348 0.396 6.608 0.396 5.776ZM11.9366 1.12V10H9.88463V1.12H11.9366ZM14.4557 2.608C14.0957 2.608 13.7997 2.504 13.5677 2.296C13.3437 2.08 13.2317 1.816 13.2317 1.504C13.2317 1.184 13.3437 0.92 13.5677 0.711999C13.7997 0.495999 14.0957 0.387999 14.4557 0.387999C14.8077 0.387999 15.0957 0.495999 15.3197 0.711999C15.5517 0.92 15.6677 1.184 15.6677 1.504C15.6677 1.816 15.5517 2.08 15.3197 2.296C15.0957 2.504 14.8077 2.608 14.4557 2.608ZM15.4757 3.304V10H13.4237V3.304H15.4757ZM19.0148 4.252C19.2148 3.94 19.4908 3.688 19.8428 3.496C20.1948 3.304 20.6068 3.208 21.0788 3.208C21.6308 3.208 22.1308 3.348 22.5788 3.628C23.0268 3.908 23.3788 4.308 23.6348 4.828C23.8988 5.348 24.0308 5.952 24.0308 6.64C24.0308 7.328 23.8988 7.936 23.6348 8.464C23.3788 8.984 23.0268 9.388 22.5788 9.676C22.1308 9.956 21.6308 10.096 21.0788 10.096C20.6148 10.096 20.2028 10 19.8428 9.808C19.4908 9.616 19.2148 9.368 19.0148 9.064V13.192H16.9628V3.304H19.0148V4.252ZM21.9428 6.64C21.9428 6.128 21.7988 5.728 21.5108 5.44C21.2308 5.144 20.8828 4.996 20.4668 4.996C20.0588 4.996 19.7108 5.144 19.4228 5.44C19.1428 5.736 19.0028 6.14 19.0028 6.652C19.0028 7.164 19.1428 7.568 19.4228 7.864C19.7108 8.16 20.0588 8.308 20.4668 8.308C20.8748 8.308 21.2228 8.16 21.5108 7.864C21.7988 7.56 21.9428 7.152 21.9428 6.64Z" fill="#029D9D"/>
<path d="M32.6433 10H30.5913L27.1593 4.804V10H25.1073V1.576H27.1593L30.5913 6.796V1.576H32.6433V10ZM37.1787 10.096C36.5227 10.096 35.9307 9.956 35.4027 9.676C34.8827 9.396 34.4707 8.996 34.1667 8.476C33.8707 7.956 33.7227 7.348 33.7227 6.652C33.7227 5.964 33.8747 5.36 34.1787 4.84C34.4827 4.312 34.8987 3.908 35.4267 3.628C35.9547 3.348 36.5467 3.208 37.2027 3.208C37.8587 3.208 38.4507 3.348 38.9787 3.628C39.5067 3.908 39.9227 4.312 40.2267 4.84C40.5307 5.36 40.6827 5.964 40.6827 6.652C40.6827 7.34 40.5267 7.948 40.2147 8.476C39.9107 8.996 39.4907 9.396 38.9547 9.676C38.4267 9.956 37.8347 10.096 37.1787 10.096ZM37.1787 8.32C37.5707 8.32 37.9027 8.176 38.1747 7.888C38.4547 7.6 38.5947 7.188 38.5947 6.652C38.5947 6.116 38.4587 5.704 38.1867 5.416C37.9227 5.128 37.5947 4.984 37.2027 4.984C36.8027 4.984 36.4707 5.128 36.2067 5.416C35.9427 5.696 35.8107 6.108 35.8107 6.652C35.8107 7.188 35.9387 7.6 36.1947 7.888C36.4587 8.176 36.7867 8.32 37.1787 8.32ZM45.5033 8.26V10H44.4593C43.7153 10 43.1353 9.82 42.7193 9.46C42.3033 9.092 42.0953 8.496 42.0953 7.672V5.008H41.2793V3.304H42.0953V1.672H44.1473V3.304H45.4913V5.008H44.1473V7.696C44.1473 7.896 44.1953 8.04 44.2913 8.128C44.3873 8.216 44.5473 8.26 44.7713 8.26H45.5033ZM52.9583 6.544C52.9583 6.736 52.9463 6.936 52.9223 7.144H48.2783C48.3103 7.56 48.4423 7.88 48.6743 8.104C48.9143 8.32 49.2063 8.428 49.5503 8.428C50.0623 8.428 50.4183 8.212 50.6183 7.78H52.8023C52.6903 8.22 52.4863 8.616 52.1903 8.968C51.9023 9.32 51.5383 9.596 51.0983 9.796C50.6583 9.996 50.1663 10.096 49.6223 10.096C48.9663 10.096 48.3823 9.956 47.8703 9.676C47.3583 9.396 46.9583 8.996 46.6703 8.476C46.3823 7.956 46.2383 7.348 46.2383 6.652C46.2383 5.956 46.3783 5.348 46.6583 4.828C46.9463 4.308 47.3463 3.908 47.8583 3.628C48.3703 3.348 48.9583 3.208 49.6223 3.208C50.2703 3.208 50.8463 3.344 51.3503 3.616C51.8543 3.888 52.2463 4.276 52.5263 4.78C52.8143 5.284 52.9583 5.872 52.9583 6.544ZM50.8583 6.004C50.8583 5.652 50.7383 5.372 50.4983 5.164C50.2583 4.956 49.9583 4.852 49.5983 4.852C49.2543 4.852 48.9623 4.952 48.7223 5.152C48.4903 5.352 48.3463 5.636 48.2903 6.004H50.8583ZM56.7649 10.096C56.1809 10.096 55.6609 9.996 55.2049 9.796C54.7489 9.596 54.3889 9.324 54.1249 8.98C53.8609 8.628 53.7129 8.236 53.6809 7.804H55.7089C55.7329 8.036 55.8409 8.224 56.0329 8.368C56.2249 8.512 56.4609 8.584 56.7409 8.584C56.9969 8.584 57.1929 8.536 57.3289 8.44C57.4729 8.336 57.5449 8.204 57.5449 8.044C57.5449 7.852 57.4449 7.712 57.2449 7.624C57.0449 7.528 56.7209 7.424 56.2729 7.312C55.7929 7.2 55.3929 7.084 55.0729 6.964C54.7529 6.836 54.4769 6.64 54.2449 6.376C54.0129 6.104 53.8969 5.74 53.8969 5.284C53.8969 4.9 54.0009 4.552 54.2089 4.24C54.4249 3.92 54.7369 3.668 55.1449 3.484C55.5609 3.3 56.0529 3.208 56.6209 3.208C57.4609 3.208 58.1209 3.416 58.6009 3.832C59.0889 4.248 59.3689 4.8 59.4409 5.488H57.5449C57.5129 5.256 57.4089 5.072 57.2329 4.936C57.0649 4.8 56.8409 4.732 56.5609 4.732C56.3209 4.732 56.1369 4.78 56.0089 4.876C55.8809 4.964 55.8169 5.088 55.8169 5.248C55.8169 5.44 55.9169 5.584 56.1169 5.68C56.3249 5.776 56.6449 5.872 57.0769 5.968C57.5729 6.096 57.9769 6.224 58.2889 6.352C58.6009 6.472 58.8729 6.672 59.1049 6.952C59.3449 7.224 59.4689 7.592 59.4769 8.056C59.4769 8.448 59.3649 8.8 59.1409 9.112C58.9249 9.416 58.6089 9.656 58.1929 9.832C57.7849 10.008 57.3089 10.096 56.7649 10.096Z" fill="#EDE6A9"/>
</svg>
